%TF.GenerationSoftware,KiCad,Pcbnew,(5.1.6)-1*%
%TF.CreationDate,2021-03-27T23:39:17-04:00*%
%TF.ProjectId,sharptag,73686172-7074-4616-972e-6b696361645f,rev?*%
%TF.SameCoordinates,Original*%
%TF.FileFunction,Soldermask,Bot*%
%TF.FilePolarity,Negative*%
%FSLAX46Y46*%
G04 Gerber Fmt 4.6, Leading zero omitted, Abs format (unit mm)*
G04 Created by KiCad (PCBNEW (5.1.6)-1) date 2021-03-27 23:39:17*
%MOMM*%
%LPD*%
G01*
G04 APERTURE LIST*
%ADD10O,1.700000X1.100000*%
%ADD11C,0.750000*%
%ADD12O,2.200000X1.100000*%
%ADD13C,3.300000*%
%ADD14R,1.600000X1.600000*%
%ADD15C,1.000000*%
%ADD16R,1.600000X1.100000*%
%ADD17C,1.448000*%
G04 APERTURE END LIST*
D10*
%TO.C,J1*%
X-37150000Y-6320000D03*
D11*
X-33500000Y-4890000D03*
D10*
X-37150000Y2320000D03*
D11*
X-33500000Y890000D03*
D12*
X-32970000Y2320000D03*
X-32970000Y-6320000D03*
%TD*%
D13*
%TO.C,H1*%
X35000000Y-27000000D03*
%TD*%
%TO.C,H2*%
X-35000000Y23000000D03*
%TD*%
%TO.C,H3*%
X35000000Y23000000D03*
%TD*%
%TO.C,H4*%
X-35000000Y-27000000D03*
%TD*%
D14*
%TO.C,SW3*%
X29900000Y-27000000D03*
X22100000Y-27000000D03*
%TD*%
%TO.C,SW4*%
X9100000Y-27000000D03*
X16900000Y-27000000D03*
%TD*%
%TO.C,SW5*%
X-16900000Y-27000000D03*
X-9100000Y-27000000D03*
%TD*%
%TO.C,SW6*%
X-22100000Y-27000000D03*
X-29900000Y-27000000D03*
%TD*%
D15*
%TO.C,SW7*%
X-27500000Y-28330000D03*
X-24500000Y-28330000D03*
%TD*%
%TO.C,Q4*%
G36*
G01*
X-281250Y24275000D02*
X281250Y24275000D01*
G75*
G02*
X525000Y24031250I0J-243750D01*
G01*
X525000Y23543750D01*
G75*
G02*
X281250Y23300000I-243750J0D01*
G01*
X-281250Y23300000D01*
G75*
G02*
X-525000Y23543750I0J243750D01*
G01*
X-525000Y24031250D01*
G75*
G02*
X-281250Y24275000I243750J0D01*
G01*
G37*
G36*
G01*
X-281250Y22700000D02*
X281250Y22700000D01*
G75*
G02*
X525000Y22456250I0J-243750D01*
G01*
X525000Y21968750D01*
G75*
G02*
X281250Y21725000I-243750J0D01*
G01*
X-281250Y21725000D01*
G75*
G02*
X-525000Y21968750I0J243750D01*
G01*
X-525000Y22456250D01*
G75*
G02*
X-281250Y22700000I243750J0D01*
G01*
G37*
%TD*%
D16*
%TO.C,D7*%
X21550000Y21400000D03*
X21550000Y24600000D03*
X26450000Y21400000D03*
X26450000Y24600000D03*
%TD*%
%TO.C,D8*%
X10450000Y24600000D03*
X10450000Y21400000D03*
X5550000Y24600000D03*
X5550000Y21400000D03*
%TD*%
%TO.C,D9*%
X-5550000Y24600000D03*
X-5550000Y21400000D03*
X-10450000Y24600000D03*
X-10450000Y21400000D03*
%TD*%
%TO.C,D10*%
X-26450000Y21400000D03*
X-26450000Y24600000D03*
X-21550000Y21400000D03*
X-21550000Y24600000D03*
%TD*%
D17*
%TO.C,H5*%
X-6800000Y-27000000D03*
%TD*%
%TO.C,H6*%
X-30800000Y23000000D03*
%TD*%
%TO.C,H7*%
X31000000Y23000000D03*
%TD*%
M02*
