%TF.GenerationSoftware,KiCad,Pcbnew,(5.1.6)-1*%
%TF.CreationDate,2021-03-27T23:39:17-04:00*%
%TF.ProjectId,sharptag,73686172-7074-4616-972e-6b696361645f,rev?*%
%TF.SameCoordinates,Original*%
%TF.FileFunction,Paste,Bot*%
%TF.FilePolarity,Positive*%
%FSLAX46Y46*%
G04 Gerber Fmt 4.6, Leading zero omitted, Abs format (unit mm)*
G04 Created by KiCad (PCBNEW (5.1.6)-1) date 2021-03-27 23:39:17*
%MOMM*%
%LPD*%
G01*
G04 APERTURE LIST*
%ADD10R,1.500000X1.500000*%
%ADD11R,1.500000X1.000000*%
G04 APERTURE END LIST*
D10*
%TO.C,SW3*%
X29900000Y-27000000D03*
X22100000Y-27000000D03*
%TD*%
%TO.C,SW4*%
X9100000Y-27000000D03*
X16900000Y-27000000D03*
%TD*%
%TO.C,SW5*%
X-16900000Y-27000000D03*
X-9100000Y-27000000D03*
%TD*%
%TO.C,SW6*%
X-22100000Y-27000000D03*
X-29900000Y-27000000D03*
%TD*%
%TO.C,Q4*%
G36*
G01*
X-256250Y24225000D02*
X256250Y24225000D01*
G75*
G02*
X475000Y24006250I0J-218750D01*
G01*
X475000Y23568750D01*
G75*
G02*
X256250Y23350000I-218750J0D01*
G01*
X-256250Y23350000D01*
G75*
G02*
X-475000Y23568750I0J218750D01*
G01*
X-475000Y24006250D01*
G75*
G02*
X-256250Y24225000I218750J0D01*
G01*
G37*
G36*
G01*
X-256250Y22650000D02*
X256250Y22650000D01*
G75*
G02*
X475000Y22431250I0J-218750D01*
G01*
X475000Y21993750D01*
G75*
G02*
X256250Y21775000I-218750J0D01*
G01*
X-256250Y21775000D01*
G75*
G02*
X-475000Y21993750I0J218750D01*
G01*
X-475000Y22431250D01*
G75*
G02*
X-256250Y22650000I218750J0D01*
G01*
G37*
%TD*%
D11*
%TO.C,D7*%
X21550000Y21400000D03*
X21550000Y24600000D03*
X26450000Y21400000D03*
X26450000Y24600000D03*
%TD*%
%TO.C,D8*%
X10450000Y24600000D03*
X10450000Y21400000D03*
X5550000Y24600000D03*
X5550000Y21400000D03*
%TD*%
%TO.C,D9*%
X-5550000Y24600000D03*
X-5550000Y21400000D03*
X-10450000Y24600000D03*
X-10450000Y21400000D03*
%TD*%
%TO.C,D10*%
X-26450000Y21400000D03*
X-26450000Y24600000D03*
X-21550000Y21400000D03*
X-21550000Y24600000D03*
%TD*%
M02*
