M48
; DRILL file {KiCad (5.1.6)-1} date 03/27/21 23:39:19
; FORMAT={-:-/ absolute / inch / decimal}
; #@! TF.CreationDate,2021-03-27T23:39:19-04:00
; #@! TF.GenerationSoftware,Kicad,Pcbnew,(5.1.6)-1
FMAT,2
INCH
T1C0.0157
T2C0.0236
T3C0.0256
T4C0.0354
T5C0.0454
T6C0.1260
%
G90
G05
T1
X-1.378Y-0.5197
X-1.3661Y-0.0236
X-1.3661Y-0.0866
X-1.3351Y-0.0556
X-1.3268Y-0.1181
X-1.1491Y0.591
X-1.0945Y-0.4055
X-1.0394Y0.9055
X-0.9921Y-0.9961
X-0.9528Y-0.6063
X-0.9449Y0.7638
X-0.9449Y0.5197
X-0.9449Y0.4646
X-0.8189Y-0.0315
X-0.8189Y-0.7835
X-0.7559Y-0.0669
X-0.7362Y-0.3858
X-0.735Y-0.563
X-0.6929Y-0.2756
X-0.6575Y-0.7835
X-0.6417Y-0.1496
X-0.5827Y-0.1181
X-0.4567Y0.6457
X-0.4331Y-0.7008
X-0.4094Y0.9055
X-0.4094Y0.5827
X-0.3661Y-0.7047
X-0.315Y0.7638
X-0.252Y-0.1969
X-0.1417Y0.6457
X-0.1417Y0.3465
X-0.0945Y0.9055
X0.0157Y-0.2362
X0.0699Y-0.4732
X0.1496Y-0.4409
X0.189Y-0.4094
X0.2205Y0.9055
X0.2362Y-0.6142
X0.2677Y0.2362
X0.315Y0.7638
X0.3307Y-0.5039
X0.3386Y-0.1969
X0.4803Y-0.1969
X0.6142Y-0.0079
X0.6457Y0.6378
X0.6457Y0.5591
X0.748Y-1.0079
X0.7559Y-0.6142
X0.7953Y-0.1181
X0.8504Y0.9055
X0.8819Y-0.6929
X0.9291Y-0.6929
X0.937Y-0.1417
X0.937Y-1.0079
X0.9449Y0.7638
X1.0394Y0.685
X1.3465Y0.5197
T3
X-1.3189Y0.035
X-1.3189Y-0.1925
T4
X-1.0827Y-1.1154
X-0.9646Y-1.1154
T5
X1.2205Y0.9055
X-1.2126Y0.9055
X-0.2677Y-1.063
T6
X-1.378Y0.9055
X1.378Y0.9055
X-1.378Y-1.063
X1.378Y-1.063
T2
G00X-1.4508Y0.0913
M15
G01X-1.4744Y0.0913
M16
G05
G00X-1.4508Y-0.2488
M15
G01X-1.4744Y-0.2488
M16
G05
G00X-1.2764Y0.0913
M15
G01X-1.3197Y0.0913
M16
G05
G00X-1.2764Y-0.2488
M15
G01X-1.3197Y-0.2488
M16
G05
T0
M30
