%TF.GenerationSoftware,KiCad,Pcbnew,(5.1.6)-1*%
%TF.CreationDate,2021-03-27T23:39:17-04:00*%
%TF.ProjectId,sharptag,73686172-7074-4616-972e-6b696361645f,rev?*%
%TF.SameCoordinates,Original*%
%TF.FileFunction,Profile,NP*%
%FSLAX46Y46*%
G04 Gerber Fmt 4.6, Leading zero omitted, Abs format (unit mm)*
G04 Created by KiCad (PCBNEW (5.1.6)-1) date 2021-03-27 23:39:17*
%MOMM*%
%LPD*%
G01*
G04 APERTURE LIST*
%TA.AperFunction,Profile*%
%ADD10C,0.050000*%
%TD*%
G04 APERTURE END LIST*
D10*
X-38100000Y4000000D02*
X-38100000Y23000000D01*
X-38800000Y3300000D02*
X-38100000Y4000000D01*
X-38800000Y-7300000D02*
X-38800000Y3300000D01*
X-38100000Y-8000000D02*
X-38800000Y-7300000D01*
X-38100000Y-27000000D02*
X-38100000Y-8000000D01*
X6500000Y-30100000D02*
X35000000Y-30100000D01*
X6500000Y-30100000D02*
G75*
G02*
X5000000Y-28600000I0J1500000D01*
G01*
X5000000Y-24700000D02*
X5000000Y-28600000D01*
X3500000Y-23200000D02*
G75*
G02*
X5000000Y-24700000I0J-1500000D01*
G01*
X-3500000Y-23200000D02*
X3500000Y-23200000D01*
X-5000000Y-24700000D02*
G75*
G02*
X-3500000Y-23200000I1500000J0D01*
G01*
X-5000000Y-28600000D02*
G75*
G02*
X-6500000Y-30100000I-1500000J0D01*
G01*
X-5000000Y-28600000D02*
X-5000000Y-24700000D01*
X-35000000Y-30100000D02*
X-6500000Y-30100000D01*
X35000000Y26100000D02*
G75*
G02*
X38100000Y23000000I0J-3100000D01*
G01*
X38100000Y-27000000D02*
G75*
G02*
X35000000Y-30100000I-3100000J0D01*
G01*
X-35000000Y-30100000D02*
G75*
G02*
X-38100000Y-27000000I0J3100000D01*
G01*
X-38100000Y23000000D02*
G75*
G02*
X-35000000Y26100000I3100000J0D01*
G01*
X35000000Y26100000D02*
X-35000000Y26100000D01*
X38100000Y-27000000D02*
X38100000Y23000000D01*
M02*
